<?xml version="1.0" standalone="no"?>
<!DOCTYPE svg PUBLIC "-//W3C//DTD SVG 20010904//EN"
 "http://www.w3.org/TR/2001/REC-SVG-20010904/DTD/svg10.dtd">
<svg version="1.0" xmlns="http://www.w3.org/2000/svg"
 width="512.000000pt" height="512.000000pt" viewBox="0 0 512.000000 512.000000"
 preserveAspectRatio="xMidYMid meet">
<metadata>
Created by potrace 1.14, written by Peter Selinger 2001-2017
</metadata>
<g transform="translate(0.000000,512.000000) scale(0.100000,-0.100000)"
fill="#000000" stroke="none">
<path d="M3483 4327 l-683 -682 5 -75 c3 -41 7 -86 10 -100 2 -14 7 -56 10
-95 3 -38 8 -83 10 -100 2 -16 7 -59 10 -94 l7 -63 -139 4 c-130 4 -142 6
-203 35 -93 46 -137 97 -217 253 -85 167 -133 241 -241 373 -211 260 -515 473
-835 586 -201 71 -351 98 -584 108 l-153 6 0 -82 0 -81 93 -1 c307 -3 565 -67
817 -201 86 -45 227 -135 256 -162 7 -6 31 -27 55 -46 47 -37 150 -138 212
-208 67 -74 182 -254 252 -391 97 -191 177 -267 340 -322 77 -26 88 -27 300
-28 121 -1 236 -3 255 -6 19 -2 62 -6 95 -9 33 -4 78 -8 100 -11 22 -3 63 -7
90 -9 28 -3 81 -8 118 -12 l69 -7 684 684 c643 643 684 686 684 719 0 32 -23
58 -333 367 -309 310 -335 333 -367 333 -33 0 -76 -41 -717 -683z m976 232
l250 -250 -620 -620 c-342 -342 -626 -618 -633 -616 -7 3 -44 8 -82 11 -147
14 -358 37 -361 39 -2 3 -10 75 -18 162 -4 39 -8 81 -10 95 -2 14 -7 61 -11
105 -3 44 -8 83 -10 86 -4 8 1225 1239 1237 1239 4 0 120 -113 258 -251z"/>
<path d="M3200 3577 c-104 -55 -135 -199 -63 -294 59 -77 173 -99 257 -49 98
58 129 180 68 277 -20 32 -38 48 -87 74 -40 22 -127 18 -175 -8z m131 -158
c14 -27 -23 -64 -50 -50 -26 15 -32 35 -15 59 16 24 49 19 65 -9z"/>
<path d="M0 3600 l0 -80 320 0 321 0 28 -62 c15 -35 37 -83 49 -108 11 -25 59
-133 107 -240 47 -107 96 -215 107 -240 11 -25 47 -104 78 -175 32 -72 73
-162 90 -200 18 -39 68 -151 112 -250 44 -99 121 -270 170 -380 50 -110 110
-245 135 -300 25 -55 51 -113 59 -130 7 -16 33 -75 58 -130 l45 -100 1241 -3
1240 -2 0 80 0 80 -1188 0 -1188 0 -70 158 -70 157 1378 3 1378 2 0 80 0 80
-1417 2 -1416 3 -68 150 c-38 83 -68 153 -69 158 0 4 722 7 1605 7 l1605 0 0
80 0 80 -1643 0 -1643 0 -28 63 c-15 34 -46 105 -70 157 l-43 95 1834 3 1833
2 0 80 0 80 -1872 2 -1871 3 -68 150 c-37 83 -68 153 -68 158 -1 4 242 7 539
7 l540 0 0 80 0 80 -578 0 -578 0 -89 200 -90 200 -372 0 -373 0 0 -80z"/>
<path d="M4080 3200 l0 -80 520 0 520 0 0 80 0 80 -520 0 -520 0 0 -80z"/>
<path d="M1673 1104 c-145 -38 -276 -145 -338 -276 -97 -204 -58 -436 99 -594
203 -203 528 -203 732 0 272 272 162 735 -205 859 -72 25 -218 30 -288 11z
m278 -181 c138 -65 209 -181 205 -335 -4 -136 -80 -252 -206 -312 -55 -26 -77
-31 -145 -32 -151 -1 -263 69 -328 205 -69 145 -36 307 86 421 97 90 261 113
388 53z"/>
<path d="M1706 864 c-70 -22 -149 -103 -170 -174 -20 -68 -20 -115 1 -179 34
-107 131 -181 243 -186 83 -4 145 15 198 61 126 108 134 293 16 411 -78 78
-176 101 -288 67z m178 -183 c26 -27 31 -39 31 -81 0 -43 -5 -54 -33 -82 -28
-28 -39 -33 -82 -33 -43 0 -54 5 -82 33 -28 28 -33 39 -33 81 0 52 25 92 70
112 37 16 96 3 129 -30z"/>
<path d="M3995 1105 c-143 -36 -274 -143 -338 -276 -47 -95 -57 -144 -53 -254
18 -451 571 -660 888 -335 89 92 135 194 144 324 17 236 -128 452 -353 528
-75 26 -212 31 -288 13z m229 -162 c208 -62 313 -299 219 -493 -49 -101 -110
-155 -211 -189 -223 -76 -461 89 -469 324 -7 250 223 428 461 358z"/>
<path d="M4060 874 c-113 -42 -178 -101 -205 -188 -42 -135 27 -290 154 -343
53 -23 153 -25 208 -5 56 20 133 91 157 145 60 131 3 297 -125 365 -43 23
-155 39 -189 26z m144 -193 c26 -27 31 -39 31 -81 0 -43 -5 -54 -33 -82 -28
-28 -39 -33 -82 -33 -43 0 -54 5 -82 33 -28 28 -33 39 -33 81 0 52 25 92 70
112 37 16 96 3 129 -30z"/>
</g>
</svg>
